REM DIRINDEX 1\2,1\3
REM DIRNAME folder01,folder02,folder03
TITLE ""
FILE "DISC2Track02.mp3" MP3
  TRACK 01 AUDIO
    TITLE "0:"
    INDEX 01 00:00:00
  TRACK 02 AUDIO
    TITLE "3:cjc133_1751"
    INDEX 01 00:00:15
  TRACK 03 AUDIO
    TITLE "0:"
    INDEX 01 00:01:62
  TRACK 04 AUDIO
    TITLE "2:cjc133_1752"
    INDEX 01 00:02:36
  TRACK 05 AUDIO
    TITLE "2:cjc133_1753"
    INDEX 01 00:05:40
  TRACK 06 AUDIO
    TITLE "2:cjc133_1754"
    INDEX 01 00:08:40
  TRACK 07 AUDIO
    TITLE "0:"
    INDEX 01 00:10:41
  TRACK 08 AUDIO
    TITLE "2:cjc133_1755"
    INDEX 01 00:11:17
  TRACK 09 AUDIO
    TITLE "2:cjc133_1756"
    INDEX 01 00:12:52
  TRACK 10 AUDIO
    TITLE "2:cjc133_1757"
    INDEX 01 00:15:44
  TRACK 11 AUDIO
    TITLE "0:"
    INDEX 01 00:17:41
  TRACK 12 AUDIO
    TITLE "2:cjc133_1758"
    INDEX 01 00:18:19
  TRACK 13 AUDIO
    TITLE "2:cjc133_1759"
    INDEX 01 00:20:10
  TRACK 14 AUDIO
    TITLE "2:cjc133_1760"
    INDEX 01 00:23:34
  TRACK 15 AUDIO
    TITLE "0:"
    INDEX 01 00:25:64
  TRACK 16 AUDIO
    TITLE "2:cjc133_1761"
    INDEX 01 00:26:40
  TRACK 17 AUDIO
    TITLE "2:cjc133_1762"
    INDEX 01 00:28:55
  TRACK 18 AUDIO
    TITLE "2:cjc133_1763"
    INDEX 01 00:31:65
  TRACK 19 AUDIO
    TITLE "0:"
    INDEX 01 00:34:08
  TRACK 20 AUDIO
    TITLE "2:cjc133_1764"
    INDEX 01 00:34:59
  TRACK 21 AUDIO
    TITLE "2:cjc133_1765"
    INDEX 01 00:36:35
  TRACK 22 AUDIO
    TITLE "2:cjc133_1766"
    INDEX 01 00:39:37
  TRACK 23 AUDIO
    TITLE "0:"
    INDEX 01 00:41:59
  TRACK 24 AUDIO
    TITLE "2:cjc133_1767"
    INDEX 01 00:42:31
  TRACK 25 AUDIO
    TITLE "2:cjc133_1768"
    INDEX 01 00:43:74
  TRACK 26 AUDIO
    TITLE "2:cjc133_1769"
    INDEX 01 00:47:28
  TRACK 27 AUDIO
    TITLE "0:"
    INDEX 01 00:49:65
  TRACK 28 AUDIO
    TITLE "2:cjc133_1770"
    INDEX 01 00:50:42
  TRACK 29 AUDIO
    TITLE "2:cjc133_1771"
    INDEX 01 00:52:08
  TRACK 30 AUDIO
    TITLE "2:cjc133_1772"
    INDEX 01 00:55:08
  TRACK 31 AUDIO
    TITLE "0:"
    INDEX 01 00:57:23
  TRACK 32 AUDIO
    TITLE "2:cjc133_1773"
    INDEX 01 00:57:72
  TRACK 33 AUDIO
    TITLE "2:cjc133_1774"
    INDEX 01 00:59:45
  TRACK 34 AUDIO
    TITLE "2:cjc133_1775"
    INDEX 01 01:02:40
  TRACK 35 AUDIO
    TITLE "0:"
    INDEX 01 01:04:43
  TRACK 36 AUDIO
    TITLE "2:cjc133_1776"
    INDEX 01 01:05:17
  TRACK 37 AUDIO
    TITLE "2:cjc133_1777"
    INDEX 01 01:07:19
  TRACK 38 AUDIO
    TITLE "2:cjc133_1778"
    INDEX 01 01:10:55
  TRACK 39 AUDIO
    TITLE "0:"
    INDEX 01 01:13:20
  TRACK 40 AUDIO
    TITLE "2:cjc133_1779"
    INDEX 01 01:13:73
  TRACK 41 AUDIO
    TITLE "2:cjc133_1780"
    INDEX 01 01:16:18
  TRACK 42 AUDIO
    TITLE "2:cjc133_1781"
    INDEX 01 01:18:66
  TRACK 43 AUDIO
    TITLE "0:"
    INDEX 01 01:20:44
  TRACK 44 AUDIO
    TITLE "2:cjc133_1782"
    INDEX 01 01:21:16
  TRACK 45 AUDIO
    TITLE "2:cjc133_1783"
    INDEX 01 01:24:36
  TRACK 46 AUDIO
    TITLE "2:cjc133_1784"
    INDEX 01 01:27:46
  TRACK 47 AUDIO
    TITLE "0:"
    INDEX 01 01:29:68
  TRACK 48 AUDIO
    TITLE "2:cjc133_1785"
    INDEX 01 01:30:42
  TRACK 49 AUDIO
    TITLE "2:cjc133_1786"
    INDEX 01 01:33:46
  TRACK 50 AUDIO
    TITLE "2:cjc133_1787"
    INDEX 01 01:36:62
  TRACK 51 AUDIO
    TITLE "0:"
    INDEX 01 01:39:04
  TRACK 52 AUDIO
    TITLE "2:cjc133_1788"
    INDEX 01 01:39:55
  TRACK 53 AUDIO
    TITLE "2:cjc133_1789"
    INDEX 01 01:42:08
  TRACK 54 AUDIO
    TITLE "2:cjc133_1790"
    INDEX 01 01:45:06
  TRACK 55 AUDIO
    TITLE "0:"
    INDEX 01 01:47:11
  TRACK 56 AUDIO
    TITLE "2:cjc133_1791"
    INDEX 01 01:47:62
  TRACK 57 AUDIO
    TITLE "2:cjc133_1792"
    INDEX 01 01:50:47
  TRACK 58 AUDIO
    TITLE "2:cjc133_1793"
    INDEX 01 01:54:19
  TRACK 59 AUDIO
    TITLE "0:"
    INDEX 01 01:56:71
  TRACK 60 AUDIO
    TITLE "2:cjc133_1794"
    INDEX 01 01:57:51
  TRACK 61 AUDIO
    TITLE "2:cjc133_1795"
    INDEX 01 02:00:22
  TRACK 62 AUDIO
    TITLE "2:cjc133_1796"
    INDEX 01 02:03:51
  TRACK 63 AUDIO
    TITLE "0:"
    INDEX 01 02:06:16
